<svg width="16" height="16" viewBox="0 0 16 16" fill="none" xmlns="http://www.w3.org/2000/svg">
<g id="Group">
<path id="Vector" d="M8 3.66667C9.01818 3.66604 10.0037 4.02585 10.782 4.68233L12.962 2.60633C12.1252 1.8347 11.12 1.26873 10.0262 0.953354C8.93249 0.637976 7.78029 0.581867 6.66108 0.789481C5.54187 0.997094 4.48645 1.46271 3.57859 2.14939C2.67073 2.83607 1.93542 3.72489 1.431 4.74533L3.88867 6.63967C4.17529 5.77536 4.72659 5.02315 5.46447 4.48957C6.20235 3.95599 7.08941 3.66809 8 3.66667Z" fill="#D94F3D"/>
<path id="Vector_2" d="M3.66667 8C3.66728 7.53759 3.74224 7.07828 3.88867 6.63966L1.431 4.74533C0.928287 5.75663 0.666672 6.87064 0.666672 8C0.666672 9.12936 0.928287 10.2434 1.431 11.2547L3.88867 9.36033C3.74224 8.92171 3.66728 8.46241 3.66667 8Z" fill="#F2C042"/>
<path id="Vector_3" d="M15.0333 6.66666H8.03333V9.66666H12C11.764 10.5149 11.2234 11.2463 10.4817 11.7207L12.9203 13.6007C14.4787 12.202 15.3943 9.92766 15.0333 6.66666Z" fill="#5085ED"/>
<path id="Vector_4" d="M10.4807 11.7207C9.72701 12.152 8.86782 12.3642 8 12.3333C7.08941 12.3319 6.20235 12.044 5.46447 11.5104C4.72659 10.9769 4.17529 10.2246 3.88867 9.36034L1.431 11.2547C2.03805 12.4784 2.97448 13.5084 4.13498 14.229C5.29548 14.9495 6.634 15.332 8 15.3333C9.79745 15.3822 11.5495 14.7648 12.9193 13.6L10.4807 11.7207Z" fill="#57A75C"/>
</g>
</svg>
