<svg width="376" height="77" viewBox="0 0 376 77" fill="none" xmlns="http://www.w3.org/2000/svg">
<path fill-rule="evenodd" clip-rule="evenodd" d="M225.666 24.161C230.656 20.4776 236.652 18.4825 242.868 18.4825C258.932 18.4825 272.02 31.5715 272.042 47.6423C272.042 63.7569 258.954 76.8459 242.89 76.8459C236.416 76.8459 230.162 74.6702 225.039 70.6807C224.607 70.3437 224 70.3298 223.565 70.6637L215.627 76.7552C214.854 77.3484 213.738 76.7963 213.738 75.8208V0H225.666V24.161ZM242.868 64.9189C252.345 64.9189 260.07 57.1795 260.07 47.6642C260.07 38.1489 252.345 30.4314 242.868 30.4314C233.391 30.4314 225.666 38.1708 225.666 47.6861C225.666 57.1795 233.391 64.9189 242.868 64.9189ZM56.0061 56.1928L65.6578 18.3947H78.3954L63.6517 76.0704C63.5185 76.5912 63.05 76.9555 62.5134 76.9555H50.9723L39.3071 47.6861L27.6201 76.9555H16.0501C15.2185 76.9555 14.6501 76.1139 14.9594 75.3406L33.9232 27.932H44.7348L56.0061 56.1928ZM123.064 22.0562C129.915 25.8054 134.883 31.9662 137.071 39.4425L138.424 44.0349C138.608 44.6588 138.251 45.3137 137.628 45.4972L95.2913 57.9688C99.187 63.165 105.753 65.8178 112.165 64.6339C117.265 63.6692 121.642 60.534 124.137 56.0395L124.2 55.9257C124.516 55.3586 125.23 55.1547 125.797 55.4701L134.182 60.1368C134.75 60.4529 134.954 61.1707 134.638 61.7391L134.576 61.8495C130.834 68.5804 124.706 73.4915 117.308 75.662C116.346 75.947 115.361 76.1663 114.354 76.3636C112.625 76.6925 110.896 76.846 109.167 76.846C97.1297 76.846 85.8366 69.1943 81.6782 57.5084C78.9425 49.8567 79.4678 41.6569 83.1446 34.4217C86.7558 27.2743 93.234 21.9028 100.894 19.6445C108.357 17.4521 116.236 18.3071 123.064 22.0562ZM91.9208 46.5022L122.933 37.3816C119.672 32.9528 114.507 30.4315 109.123 30.4315C107.504 30.4315 105.884 30.6507 104.264 31.133C99.6684 32.4924 95.9478 35.5838 93.7811 39.8591C92.6868 41.9638 92.074 44.2001 91.9208 46.5022ZM376 69.523C375.978 69.0407 375.934 68.5803 375.869 68.1418V68.1199C375.781 67.6814 375.65 67.2429 375.453 66.7825C375.278 66.344 375.059 65.9274 374.774 65.5108C374.512 65.1162 374.205 64.7435 373.855 64.3927C372.17 62.6826 369.631 61.9371 367.268 62.3975H367.246C366.742 62.5072 366.305 62.6387 365.911 62.8141C365.495 62.9895 365.079 63.2087 364.663 63.4718C364.269 63.7349 363.875 64.0419 363.525 64.4146C363.197 64.7435 362.912 65.1162 362.65 65.4889L362.628 65.5328C362.365 65.9274 362.168 66.322 361.971 66.7605V66.7825C361.774 67.2648 361.643 67.6814 361.555 68.1199C361.468 68.5803 361.402 69.0626 361.402 69.5669C361.402 70.0712 361.446 70.5535 361.555 71.0139C361.643 71.4743 361.796 71.9128 361.971 72.3513C362.146 72.7679 362.365 73.1845 362.628 73.601L362.65 73.6229C362.912 74.0176 363.219 74.3903 363.547 74.7192C364.904 76.0785 366.786 76.8678 368.712 76.8678C370.638 76.8678 372.52 76.1004 373.855 74.7411C374.205 74.4122 374.512 74.0395 374.774 73.6229C375.059 73.2064 375.278 72.7898 375.453 72.3513C375.584 72.0225 375.759 71.5401 375.869 70.992V70.9701C375.956 70.4439 376 70.0054 376 69.5888V69.523ZM330.04 18.4825C313.975 18.4825 300.888 31.5715 300.888 47.6861C300.888 63.8007 313.953 76.8897 330.04 76.8897C346.126 76.8897 359.192 63.8007 359.192 47.6861C359.192 31.5715 346.104 18.4825 330.04 18.4825ZM330.04 64.897C325.444 64.897 321.132 63.0991 317.893 59.8543C314.654 56.6094 312.859 52.2903 312.859 47.6861C312.859 43.0819 314.654 38.7628 317.893 35.5179C321.132 32.2731 325.444 30.4753 330.04 30.4753C334.636 30.4753 338.947 32.2731 342.186 35.5179C345.425 38.7628 347.22 43.0819 347.22 47.6861C347.22 52.2903 345.425 56.6094 342.186 59.8543C338.947 63.0991 334.636 64.897 330.04 64.897ZM280.862 18.4825H292.79V76.8678H280.862V18.4825ZM176.007 18.4825C169.791 18.4825 163.794 20.4776 158.804 24.161V0H146.876V75.8208C146.876 76.7963 147.993 77.3484 148.766 76.7552L156.704 70.6637C157.139 70.3298 157.745 70.3437 158.178 70.6807C163.3 74.6702 169.555 76.8459 176.028 76.8459C192.093 76.8459 205.18 63.7569 205.18 47.6423C205.159 31.5715 192.093 18.4825 176.007 18.4825ZM193.231 47.6642C193.231 57.1795 185.505 64.9189 176.028 64.9189C166.552 64.9189 158.826 57.1795 158.826 47.6861C158.826 38.1708 166.552 30.4314 176.028 30.4314C185.505 30.4314 193.231 38.1489 193.231 47.6642ZM12.7376 18.3947L18.1872 39.3766L11.7901 55.3887C11.3686 56.4436 9.84731 56.3472 9.56197 55.2474L0 18.3947H12.7376Z" fill="#FFFFFF"/>
</svg>
